<svg id="Layer_1" data-name="Layer 1" xmlns="http://www.w3.org/2000/svg" viewBox="0 0 250 250"><defs><style>.cls-1,.cls-3,.cls-4{fill:#fff;}.cls-1,.cls-2{stroke:#394a58;}.cls-1,.cls-2,.cls-3,.cls-5{stroke-miterlimit:10;}.cls-1{stroke-width:10px;}.cls-2{fill:#394a58;}.cls-2,.cls-3{stroke-width:7px;}.cls-3{stroke:#fff;}.cls-5{fill:none;stroke:#2f95b4;stroke-width:5px;}.cls-6{fill:#2f95b4;}</style></defs><title>RS-logo</title><circle class="cls-1" cx="122.61" cy="124.21" r="112.72"/><circle class="cls-2" cx="122.61" cy="124.21" r="99"/><circle class="cls-3" cx="122.61" cy="124.21" r="54.65"/><path class="cls-4" d="M54.18,115.56,54.3,121l-5.54,4.17,0,1.71,5.63-.13.11,4.91L37.17,132,37,123.55c-.1-4.44,2.7-6.81,5.83-6.89,2.13,0,4,.66,5.32,3.56l5.76-4.65ZM41,127l4.17-.09-.08-3.63A1.82,1.82,0,0,0,43,121.5a2,2,0,0,0-2.12,2Z"/><path class="cls-4" d="M57.19,105.23c-1.5,5.48-5.74,8.44-11.33,6.9s-7.73-6.24-6.23-11.72S45.38,92,51,93.52,58.7,99.73,57.19,105.23Zm-13.52-3.71a4.62,4.62,0,0,0,3.48,5.87,4.74,4.74,0,1,0,2.51-9.14C46.79,97.47,44.43,98.75,43.67,101.53Z"/><path class="cls-4" d="M53.83,82.95,50.58,76.7l2.8-4.78.19.11,5.34,11.13,6,3.5L62.4,90.91l-6-3.5-12.19.52-.17-.1L46.86,83Z"/><path class="cls-4" d="M74.19,71l-5.4,5.58L70,79.34l-3.62,3.75L59.35,65.41l3.45-3.57,17.89,6.49L77,72.12ZM64.56,67,67,72.48l3.09-3.19Z"/><path class="cls-4" d="M78.32,49.88,85,61.26,92.18,57l2.12,3.59L82.9,67.35l-8.82-15Z"/><path class="cls-4" d="M110.69,43.15a6.5,6.5,0,0,0-4.22-.37c-1.17.23-2.24.83-2.06,1.73.23,1.17,1.41,1.11,3.13.94,3.45-.32,7.26.34,8,4.25s-2.54,6.26-6.35,7c-3.06.64-5.36.55-8.22-1.46l2-3.57a7,7,0,0,0,5.37.92c1.58-.32,2.56-1.1,2.37-2s-1.25-1.19-3.16-1c-3.79.41-7.19.11-8-4.13-.72-3.6,2.49-5.87,6.09-6.59a9.87,9.87,0,0,1,6.78.73Z"/><path class="cls-4" d="M133.1,55.35l-13.89-.64.8-17.36,13.54.62-.19,4.12-8.71-.4-.11,2.48,8.21.38-.18,4-8.21-.37-.12,2.63,9,.42Z"/><path class="cls-4" d="M151.55,60.78l-5.15-1.64-2.15-6.59L142.62,52l-1.71,5.37-4.68-1.49,5.27-16.55,8.09,2.57c4.23,1.35,5.57,4.76,4.62,7.75-.65,2-1.91,3.53-5.09,3.87l2.53,6.95ZM145,44.58l-1.26,4,3.45,1.1a1.82,1.82,0,0,0,2.38-1.35,2,2,0,0,0-1.17-2.64Z"/><path class="cls-4" d="M161,66.82l-4-2.56,3.23-18.6,4.59,2.91L163.64,54,162,60.63l5.3-4.25L171.82,53l4.59,2.91Z"/><path class="cls-4" d="M176.94,77.26l-5.32-5.66-2.86,1.12-3.57-3.8,18-6.23,3.4,3.62-7.33,17.56L175.65,80Zm4.38-9.43L175.76,70l3,3.24Z"/><path class="cls-4" d="M192.14,92.14c1.81-1,2.52-1.4,3.11-1.72l5.33-2.67,2.21,4.42L187.25,100l-1.87-3.73,5.12-10.67-3.36,1.77-5,2.49-2.22-4.44,15.54-7.78,1.87,3.73Z"/><path class="cls-4" d="M201.92,104.22l-1-5,4-.82,3,14.73-4,.81-1-5-13,2.69-1-4.79Z"/><path class="cls-4" d="M203.12,130.3a6.51,6.51,0,0,0,1.34-4c0-1.19-.29-2.37-1.2-2.4-1.19,0-1.41,1.11-1.64,2.82-.5,3.43-2,7-6,6.83s-5.49-3.92-5.38-7.82c.09-3.12.72-5.34,3.33-7.65l3,2.82a7,7,0,0,0-2.14,5c-.06,1.61.47,2.75,1.44,2.78s1.45-.94,1.69-2.84c.48-3.78,1.57-7,5.89-6.86,3.67.13,5.13,3.79,5,7.46a9.87,9.87,0,0,1-2.3,6.42Z"/><path class="cls-4" d="M70.29,177.61l-6.49.7-.3-.33,1.22-6.38-6.4,6-1.55-1.66,8.8-8.2,1.78,1.91-1.22,6.28,6.35-.77,1.77,1.9-8.8,8.2-1.55-1.66Z"/><path class="cls-4" d="M69.42,188.37l7.51-9.4,1.76,1.4-7.5,9.4Z"/><path class="cls-4" d="M85.9,188.72a3.44,3.44,0,0,0-1.72-2.64c-1.43-.89-2.49-.71-3,0s.35,1.79,1.48,2.7c2,1.58,3.61,3.37,2.1,5.81-1.41,2.28-4,2-6.31.6-2.09-1.29-3.3-2.93-2.9-5.27l2.12.16a3.42,3.42,0,0,0,1.87,3.4c1.21.75,2.61,1,3.3-.08s-.17-2-1.43-3c-1.94-1.54-3.52-3.29-2.1-5.58,1.3-2.1,3.91-1.68,5.8-.53,1.59,1,3,2.46,2.76,4.52Z"/><path class="cls-4" d="M97.17,193.91A3.45,3.45,0,0,0,95,191.59c-1.56-.64-2.57-.29-2.91.53s.64,1.71,1.91,2.42c2.21,1.24,4.12,2.73,3,5.39-1,2.48-3.65,2.65-6.13,1.63-2.27-.93-3.74-2.35-3.73-4.73l2.12-.19a3.43,3.43,0,0,0,2.41,3.05c1.32.54,2.75.59,3.25-.62.43-1-.49-1.93-1.91-2.69-2.16-1.2-4-2.67-3-5.17.94-2.29,3.58-2.3,5.64-1.48,1.73.71,3.33,1.94,3.47,4Z"/><path class="cls-4" d="M99.71,204.28l3.16-11.6,2.17.59-3.16,11.6Z"/><path class="cls-4" d="M119.06,201.75c-.44,3.08-2.73,5.92-6.93,5.38a5.87,5.87,0,0,1-5.34-7,6.09,6.09,0,0,1,7-5.49A6,6,0,0,1,119.06,201.75Zm-6.66,3.31c2.81.37,4.15-1.61,4.43-3.57a4,4,0,1,0-7.83-1C108.81,202.46,109.59,204.69,112.4,205.06Z"/><path class="cls-4" d="M130.9,203.3l-.48-8.07,2.26-.13.71,12-1.83.11-6.85-7.61.47,8-2.26.13-.71-12,1.83-.11Z"/><path class="cls-4" d="M143.49,194.78l-3.66,1.09-.59-2,9.49-2.84.59,2-3.66,1.09,2.86,9.55-2.18.65Z"/><path class="cls-4" d="M165.41,196.49l-2.33,1.14-4.9-2.09-2.07,1,1.76,3.61-2,1-5.28-10.83,5.15-2.49c2.56-1.23,4.73-.18,5.64,1.69a3.57,3.57,0,0,1-1.08,4.73l5.08,2.1Zm-11.88-5.24,1.69,3.46,3.11-1.51a1.93,1.93,0,1,0-1.69-3.46Z"/><path class="cls-4" d="M168.55,194.35,162,184.3l1.88-1.23,6.6,10Z"/><path class="cls-4" d="M173.89,186.21l2.29,2.7-1.73,1.47-7.79-9.16,4.31-3.69a4.26,4.26,0,1,1,5.51,6.48Zm-1.35-1.59,2.59-2.2a2.13,2.13,0,1,0-2.76-3.25l-2.59,2.2Z"/><path class="cls-4" d="M182.7,169.43a3.46,3.46,0,0,0-2.87,1.31c-1.09,1.29-1.07,2.36-.39,2.94s1.82-.08,2.89-1.07c1.86-1.72,3.87-3.08,6.06-1.23s1.4,4.29-.33,6.34c-1.59,1.88-3.39,2.83-5.64,2.09l.47-2.08a3.43,3.43,0,0,0,3.64-1.35c.92-1.09,1.41-2.44.41-3.28s-2-.12-3.15,1c-1.81,1.69-3.77,3-5.83,1.26-1.89-1.6-1.09-4.12.33-5.82,1.21-1.43,2.87-2.57,4.88-2.07Z"/><circle class="cls-5" cx="122.61" cy="124.21" r="44.68"/><path class="cls-5" d="M90.16,93.53c7.89,5.36,19.5,8.75,32.45,8.75s24.56-3.39,32.45-8.75"/><path class="cls-5" d="M155.06,154.9c-7.89-5.36-19.5-8.75-32.45-8.75S98,149.54,90.16,154.9"/><ellipse class="cls-5" cx="122.61" cy="124.21" rx="25.5" ry="43.04"/><line class="cls-5" x1="122.61" y1="79.53" x2="122.61" y2="168.89"/><line class="cls-5" x1="77.93" y1="124.21" x2="167.29" y2="124.21"/><polygon class="cls-6" points="197 156.05 204.21 157.06 199.13 151.85 200.13 144.64 194.93 149.73 187.72 148.72 192.81 153.93 191.8 161.14 197 156.05"/><polygon class="cls-6" points="48.43 156.05 41.22 157.06 46.31 151.85 45.3 144.64 50.51 149.73 57.72 148.72 52.63 153.93 53.63 161.14 48.43 156.05"/></svg>