<svg xmlns="http://www.w3.org/2000/svg" viewBox="0 0 114.29 122.81"><defs><style>.cls-1{fill:#394a58;}</style></defs><title>adventure</title><g id="Layer_2" data-name="Layer 2"><g id="Layer_1-2" data-name="Layer 1"><path id="_Path_" data-name="&lt;Path&gt;" class="cls-1" d="M113.79,19.61l-9.64-7.09a10.91,10.91,0,0,0-6.46-2.12h-36V4.11a4.11,4.11,0,1,0-8.22,0V10.4H33a3.87,3.87,0,0,0-3.87,3.88V26.92A3.87,3.87,0,0,0,33,30.8H53.48v7.85H16.6a10.91,10.91,0,0,0-6.46,2.12L.5,47.85a1.23,1.23,0,0,0,0,2l9.64,7.09A10.91,10.91,0,0,0,16.6,59H53.48V70h-35a3.87,3.87,0,0,0-3.87,3.87V86.5a3.87,3.87,0,0,0,3.87,3.87h35v16.18H50a12.38,12.38,0,0,0-12.38,12.38,3.87,3.87,0,0,0,3.87,3.87H73.66a3.87,3.87,0,0,0,3.87-3.87,12.38,12.38,0,0,0-12.38-12.38H61.7V90.37H83.13a10.91,10.91,0,0,0,6.46-2.12l9.64-7.09a1.23,1.23,0,0,0,0-2L89.59,72.1A10.91,10.91,0,0,0,83.13,70H61.7V59H81.26a3.87,3.87,0,0,0,3.88-3.87V42.52a3.87,3.87,0,0,0-3.88-3.87H61.7V30.8h36a10.92,10.92,0,0,0,6.46-2.12l9.64-7.09a1.23,1.23,0,0,0,0-2Z"/></g></g></svg>