<svg xmlns="http://www.w3.org/2000/svg" viewBox="0 0 108 85.85"><defs><style>.cls-1{fill:#394a58;}</style></defs><title>adventure_v2</title><g id="Layer_2" data-name="Layer 2"><g id="Layer_1-2" data-name="Layer 1"><path class="cls-1" d="M96,11.74H72.77V8.68a2.11,2.11,0,0,0-4.22,0v3.06H39.45V8.68a4.47,4.47,0,0,1,4.46-4.46H57A2.11,2.11,0,1,0,57,0h-13a8.69,8.69,0,0,0-8.68,8.68v3.06H12A12.09,12.09,0,0,0,0,23.85v50a12.05,12.05,0,0,0,12,12H96a12.05,12.05,0,0,0,12-12v-50A12.09,12.09,0,0,0,96,11.74Zm-70,69.79H17.72V35.75a2.11,2.11,0,1,0-4.22,0V81.63H12a7.83,7.83,0,0,1-7.82-7.82v-50A7.86,7.86,0,0,1,12,16H25.95Zm64.34,0H30.16V16H77.84V61.7a2.11,2.11,0,0,0,4.22,0V16h8.23Zm13.5-7.71A7.83,7.83,0,0,1,96,81.63H94.5V16H96a7.86,7.86,0,0,1,7.82,7.89Z"/><path class="cls-1" d="M64.13,4.22h3.77a2.11,2.11,0,0,0,0-4.22H64.13a2.11,2.11,0,1,0,0,4.22Z"/><path class="cls-1" d="M71.36,40.68l-5.48,1.54A2.11,2.11,0,1,0,67,46.29l.58-.16L62.07,56l-1,1.84a2.11,2.11,0,1,0,3.68,2.07l9.05-16.13a2.11,2.11,0,0,0-2.41-3.06Z"/><path class="cls-1" d="M63.2,45.17a2.11,2.11,0,0,0-2.6-1.46l-1.83.51a2.11,2.11,0,1,0,1.14,4.06l1.83-.51A2.11,2.11,0,0,0,63.2,45.17Z"/><path class="cls-1" d="M46,25.7a2.1,2.1,0,0,0,1-.25l1.31-.7a2.11,2.11,0,0,0-2-3.72l-1.31.7a2.11,2.11,0,0,0,1,4Z"/><path class="cls-1" d="M36,31.07a2.1,2.1,0,0,0,1-.25l5-2.66a2.11,2.11,0,0,0-2-3.72L35,27.1a2.11,2.11,0,0,0,1,4Z"/><path class="cls-1" d="M52.37,32.37,41,38.44a2.11,2.11,0,1,0,2,3.72l11.34-6.07a2.11,2.11,0,1,0-2-3.72Z"/><path class="cls-1" d="M13.5,22v5.27a2.11,2.11,0,0,0,4.22,0V22a2.11,2.11,0,1,0-4.22,0Z"/><path class="cls-1" d="M79.95,68a2.11,2.11,0,0,0-2.11,2.11v5.27a2.11,2.11,0,0,0,4.22,0V70.14A2.11,2.11,0,0,0,79.95,68Z"/><path class="cls-1" d="M43.77,72.67A5.17,5.17,0,0,1,38.6,67.5a2.11,2.11,0,0,0-1.8-2.08l-.3,0a2.11,2.11,0,0,0-2.11,2.11,9.4,9.4,0,0,0,9.39,9.39,2.11,2.11,0,0,0,0-4.22Z"/><path class="cls-1" d="M43.77,58.11a2.11,2.11,0,0,0,0,4.22,5.17,5.17,0,0,1,5.17,5.17,2.11,2.11,0,0,0,1.8,2.08l.3,0a2.11,2.11,0,0,0,2.11-2.11A9.4,9.4,0,0,0,43.77,58.11Z"/></g></g></svg>