<svg xmlns="http://www.w3.org/2000/svg" viewBox="0 0 61 60.72"><defs><style>.cls-1{fill:#adadad;}</style></defs><title>food-3</title><g id="Layer_2" data-name="Layer 2"><g id="Layer_1-2" data-name="Layer 1"><g id="_Group_" data-name="&lt;Group&gt;"><path id="_Path_" data-name="&lt;Path&gt;" class="cls-1" d="M19.33,37.93q-.39,0-.78,0a9.17,9.17,0,0,1-2.07-.26L.85,53.33a2,2,0,0,0,0,2.78l4,4a2,2,0,0,0,2.77,0L26.45,41.37,23,37.62Z"/><path id="_Path_2" data-name="&lt;Path&gt;" class="cls-1" d="M60.45,12.9a1.88,1.88,0,0,0-2.65,0L47.67,23a2.45,2.45,0,1,1-3.47-3.46L54.28,9.48a2,2,0,0,0-2.76-2.76L41.44,16.8A2.45,2.45,0,0,1,38,13.33L48.1,3.21A1.88,1.88,0,0,0,45.44.55L34.05,11.94A10.53,10.53,0,0,0,31.34,22L39,29.67a10.53,10.53,0,0,0,10.08-2.72L60.45,15.55A1.88,1.88,0,0,0,60.45,12.9Z"/><path id="_Path_3" data-name="&lt;Path&gt;" class="cls-1" d="M5.12,1.58A2.07,2.07,0,0,0,3.66,1L3.31,1A2.07,2.07,0,0,0,1.8,2.14,18,18,0,0,0,5.27,22.71L15,32.4a5.07,5.07,0,0,0,3.59,1.49l.43,0,5.63-.48L49.14,59.85a2.07,2.07,0,0,0,1.48.66h0a2.08,2.08,0,0,0,1.47-.6l4.2-4.2a2.07,2.07,0,0,0,0-2.92Z"/></g></g></g></svg>