<svg xmlns="http://www.w3.org/2000/svg" viewBox="0 0 110 110.01"><defs><style>.cls-1{fill:#adadad;}</style></defs><title>growth_v2</title><g id="Layer_2" data-name="Layer 2"><g id="Layer_1-2" data-name="Layer 1"><path class="cls-1" d="M62.53,52.17A1.84,1.84,0,0,0,65,53c.11-.06,10.9-5.54,16.22-7.22a1.83,1.83,0,0,0-1.11-3.5C74.51,44,63.79,49.47,63.34,49.7A1.83,1.83,0,0,0,62.53,52.17Z"/><path class="cls-1" d="M64.17,31.17A1.83,1.83,0,0,0,65,31c.11-.06,10.9-5.54,16.22-7.22a1.83,1.83,0,0,0-1.11-3.5C74.51,22,63.79,27.47,63.34,27.7a1.83,1.83,0,0,0,.83,3.47Z"/><path class="cls-1" d="M108.17,27.5a1.83,1.83,0,0,0-1.83,1.83v71.5a5.51,5.51,0,0,1-5.5,5.5h-44v-4.22A54,54,0,0,1,73.34,99c16,0,26.82,3.54,26.92,3.57a1.83,1.83,0,0,0,2.41-1.74V20.17a1.83,1.83,0,0,0-1.44-1.79s-1.44-.32-3.89-.77a1.83,1.83,0,0,0-.66,3.61l2.33.45V98.4a103.54,103.54,0,0,0-25.67-3.06,57.6,57.6,0,0,0-18.26,3.51A43,43,0,0,0,38.5,95.34,123.55,123.55,0,0,0,11,98.48V21.59a120.68,120.68,0,0,1,27.5-3.25,39.75,39.75,0,0,1,14.67,3V93.5a1.83,1.83,0,0,0,2.78,1.57c.18-.11,18.35-11,34.47-16.33A1.83,1.83,0,0,0,91.67,77V1.83A1.84,1.84,0,0,0,89.19.12C74.52,5.62,59.68,14.86,59.53,14.95a1.83,1.83,0,0,0,1.94,3.11A196,196,0,0,1,88,4.51V75.69C75.49,80,62.42,87.14,56.84,90.32V20.17a1.84,1.84,0,0,0-1-1.64A42.45,42.45,0,0,0,38.5,14.67,119,119,0,0,0,8.66,18.41a1.83,1.83,0,0,0-1.33,1.76v80.67a1.83,1.83,0,0,0,1.83,1.83,1.81,1.81,0,0,0,.5-.07A117.77,117.77,0,0,1,38.5,99a39.66,39.66,0,0,1,14.67,3v4.31h-44a5.51,5.51,0,0,1-5.5-5.5V29.34a1.83,1.83,0,1,0-3.67,0v71.5A9.18,9.18,0,0,0,9.17,110h91.67a9.18,9.18,0,0,0,9.17-9.17V29.34A1.83,1.83,0,0,0,108.17,27.5Z"/><path class="cls-1" d="M62.53,41.17A1.84,1.84,0,0,0,65,42c.11-.06,10.9-5.54,16.22-7.22a1.83,1.83,0,0,0-1.11-3.5C74.51,33,63.79,38.47,63.34,38.7A1.83,1.83,0,0,0,62.53,41.17Z"/><path class="cls-1" d="M62.53,63.17A1.84,1.84,0,0,0,65,64c.11-.06,10.9-5.54,16.22-7.22a1.83,1.83,0,0,0-1.11-3.5C74.51,55,63.79,60.47,63.34,60.7A1.83,1.83,0,0,0,62.53,63.17Z"/><path class="cls-1" d="M44.42,34c-11.32-2.66-24.19.73-24.73.87a1.83,1.83,0,0,0,.47,3.6,1.86,1.86,0,0,0,.48-.06c.12,0,12.51-3.29,22.94-.85A1.83,1.83,0,1,0,44.42,34Z"/><path class="cls-1" d="M44.42,45c-11.32-2.65-24.19.73-24.73.87a1.83,1.83,0,0,0,.47,3.6,1.86,1.86,0,0,0,.48-.06c.12,0,12.51-3.29,22.94-.85A1.83,1.83,0,1,0,44.42,45Z"/><path class="cls-1" d="M62.53,74.17A1.84,1.84,0,0,0,65,75c.11-.06,10.9-5.54,16.22-7.22a1.83,1.83,0,0,0-1.11-3.5C74.51,66,63.79,71.47,63.34,71.7A1.83,1.83,0,0,0,62.53,74.17Z"/><path class="cls-1" d="M44.42,56c-11.32-2.65-24.19.73-24.73.87a1.83,1.83,0,0,0,.47,3.61,1.86,1.86,0,0,0,.48-.06c.12,0,12.51-3.29,22.94-.85A1.83,1.83,0,1,0,44.42,56Z"/><path class="cls-1" d="M44.42,78c-11.32-2.66-24.19.73-24.73.87a1.83,1.83,0,0,0,.47,3.61,1.86,1.86,0,0,0,.48-.06c.12,0,12.51-3.29,22.94-.85A1.83,1.83,0,1,0,44.42,78Z"/><path class="cls-1" d="M44.42,67c-11.32-2.66-24.19.73-24.73.87a1.83,1.83,0,0,0,.47,3.61,1.86,1.86,0,0,0,.48-.06c.12,0,12.51-3.29,22.94-.85A1.83,1.83,0,1,0,44.42,67Z"/></g></g></svg>