<svg xmlns="http://www.w3.org/2000/svg" viewBox="0 0 120 109.68"><defs><style>.cls-1{fill:#adadad;}</style></defs><title>growth-2</title><g id="Layer_2" data-name="Layer 2"><g id="Layer_1-2" data-name="Layer 1"><path class="cls-1" d="M29,22.78H47.59a2,2,0,0,0,2.07-2.07,2,2,0,0,0-2.07-2.07H29a2,2,0,0,0-2.07,2.07A2,2,0,0,0,29,22.78Z"/><path class="cls-1" d="M20.69,33.13h26.9a2.07,2.07,0,1,0,0-4.14H20.69a2.07,2.07,0,1,0,0,4.14Z"/><path class="cls-1" d="M20.69,43.47H39.31a2.07,2.07,0,0,0,0-4.14H20.69a2.07,2.07,0,1,0,0,4.14Z"/><path class="cls-1" d="M47.59,49.68H29a2.07,2.07,0,0,0,0,4.14H47.59a2.07,2.07,0,0,0,0-4.14Z"/><path class="cls-1" d="M20.69,64.16h26.9a2.07,2.07,0,1,0,0-4.14H20.69a2.07,2.07,0,0,0,0,4.14Z"/><path class="cls-1" d="M72.41,33.13H91A2.07,2.07,0,1,0,91,29H72.41a2.07,2.07,0,1,0,0,4.14Z"/><path class="cls-1" d="M72.41,22.78h29a2,2,0,0,0,2.07-2.07,2,2,0,0,0-2.07-2.07h-29a2,2,0,0,0-2.07,2.07A2,2,0,0,0,72.41,22.78Z"/><path class="cls-1" d="M101.38,60H80.69a2.07,2.07,0,1,0,0,4.14h20.69a2.07,2.07,0,0,0,0-4.14Z"/><path class="cls-1" d="M72.41,53.82H91a2.07,2.07,0,1,0,0-4.14H72.41a2.07,2.07,0,1,0,0,4.14Z"/><path class="cls-1" d="M72.41,43.47h29a2.07,2.07,0,0,0,0-4.14h-29a2.07,2.07,0,0,0,0,4.14Z"/><path class="cls-1" d="M113.79,4.16h-3.72A77.44,77.44,0,0,0,60,4.15a77.46,77.46,0,0,0-50.07,0H0v91H74.48v14.48l10.34-7.86,10.34,7.86V95.2H120v-91ZM74.48,84.85H66.21c2.9-.83,5.59-1.66,8.28-2.28Zm-21,0H11.17C23.39,79.48,37.6,79.59,53.49,84.85Zm41.68-3.93h.08a47.38,47.38,0,0,1,13.58,3.71l.41.21H95.17V80.92ZM108.83,8.09l.41.21h.41v72a50.17,50.17,0,0,0-20.3-3.88,64.53,64.53,0,0,0-13.22,1.39l-.13,0a99.5,99.5,0,0,0-13.94,3.9V7.68A75.24,75.24,0,0,1,108.83,8.09ZM11,8.09a74.42,74.42,0,0,1,47-.41V81.75L55.77,81c-16.41-5.6-31.29-6-44.2-1l-1.23.49V8.3h.41ZM4.14,8.3H6.21V84.85H4.14Zm0,82.76V89H74.48v2.07ZM91,101.4l-6.21-4.55-6.21,4.55V81.75a65.54,65.54,0,0,1,12.41-1V101.4Zm24.83-10.34H95.17V89h20.69Zm-2.07-6.21V8.3h2.07V84.85Z"/></g></g></svg>