<svg xmlns="http://www.w3.org/2000/svg" viewBox="0 0 149.9 126.15"><defs><style>.cls-1{fill:#394a58;}</style></defs><title>outreach</title><g id="Layer_2" data-name="Layer 2"><g id="Layer_1-2" data-name="Layer 1"><path class="cls-1" d="M90.46,21.65a27.24,27.24,0,0,1,12.68,20.24A22,22,0,1,0,90.46,21.65Zm-14.4,45a22,22,0,1,0-22-22A22,22,0,0,0,76.05,66.66Zm9.33,1.5H66.73A28.18,28.18,0,0,0,38.58,96.31v22.81l.06.36,1.57.49a128.13,128.13,0,0,0,38.27,6.17c20.69,0,32.68-5.9,33.42-6.27l1.47-.74h.16V96.31A28.17,28.17,0,0,0,85.38,68.16Zm36.37-22.7H103.24a27.09,27.09,0,0,1-8.36,18.87,33.45,33.45,0,0,1,23.89,32v7c18.28-.67,28.81-5.85,29.5-6.2l1.47-.74h.16V73.61A28.18,28.18,0,0,0,121.75,45.47ZM37.48,44a21.84,21.84,0,0,0,11.69-3.39A27.21,27.21,0,0,1,59.4,23.22c0-.41.06-.82.06-1.23a22,22,0,1,0-22,22ZM57.22,64.34a27.11,27.11,0,0,1-8.36-18.77c-.69-.05-1.37-.1-2.07-.1H28.15A28.18,28.18,0,0,0,0,73.61V96.43l.06.35,1.57.5a132,132,0,0,0,31.7,6V96.35A33.45,33.45,0,0,1,57.22,64.34Z"/></g></g></svg>