<svg xmlns="http://www.w3.org/2000/svg" viewBox="0 0 145 104.83"><defs><style>.cls-1{fill:#394a58;}</style></defs><title>partners</title><g id="Layer_2" data-name="Layer 2"><g id="Layer_1-2" data-name="Layer 1"><path class="cls-1" d="M145,13V56.89s-9.39,1.85-11.33,2.09-8,2.2-12.39-2c-6.78-6.49-30.85-30.44-30.85-30.44S86.28,22.46,79.62,26c-6.12,3.22-15.19,8-19,9.79-7.16,3.81-13.1-2.24-13.1-6.84,0-3.57,2.23-6,5.42-7.78C61.6,15.91,79.81,5.69,87.39,1.66,92-.79,95.32-1,101.65,4.33c7.79,6.55,14.73,12.53,14.73,12.53A7.21,7.21,0,0,0,122.25,18C131.11,16.11,145,13,145,13ZM49.18,87.37A7.67,7.67,0,0,0,40,76.77,7.91,7.91,0,0,0,38.31,69a8.09,8.09,0,0,0-7.74-2,7.9,7.9,0,0,0-1.67-7.8c-3.16-3.25-8.64-3.11-12.23.32S10.8,69.18,14,72.84s6.85,1.43,9.64.79c-.78,2.77-3.1,5.34-.24,9s6.85,1.43,9.64.8c-.78,2.76-3,5.59-.25,9s7.33,1.57,10.34.64c-1.16,3-3.64,6.2-.45,9.8s10.55,2,14.15-1.48,3.93-8.87.78-12.13A8.17,8.17,0,0,0,49.18,87.37Zm65.63-22.84C88.81,38.53,101,50.77,87,36.74c0,0-4.21-4.19-9.75-1.75-3.89,1.71-8.9,4-12.67,5.8-4.14,2.17-7.12,2.84-8.52,2.83a14.46,14.46,0,0,1-7.64-26.76c5.78-4,19.08-11.07,19.08-11.07S63.49.66,54.62.66,27.21,12.81,27.21,12.81s-5.26,3.37-12.76.33L0,8.11V58.33S4.13,59.53,7.83,61a16.52,16.52,0,0,1,4.06-6.41c6.15-5.86,16.35-5.92,21.94-.16a13.84,13.84,0,0,1,3.46,6.15,14,14,0,0,1,5.94,3.62,13.82,13.82,0,0,1,3.47,6.14,14.13,14.13,0,0,1,9.61,10.35,14.21,14.21,0,0,1,6.2,3.71,14.61,14.61,0,0,1,3.83,12.66h0c.06.07,2.08,2.33,3.35,3.61a6.37,6.37,0,1,0,9-9c-.09-.09-8.94-9.35-8.23-10.07s12,11,12.2,11.24a6.37,6.37,0,0,0,9-9c-.12-.12-.63-.6-.82-.8,0,0-11.19-10-10.33-10.82S95.31,84.37,95.33,84.37a6.29,6.29,0,0,0,9.06-8.7c0-.13-10.59-11.15-9.77-12s11.27,9.9,11.29,9.93a6.37,6.37,0,1,0,9-9Z"/></g></g></svg>