<svg xmlns="http://www.w3.org/2000/svg" viewBox="0 0 150.08 91.43"><defs><style>.cls-1{fill:#adadad;}</style></defs><title>Sleep-3</title><g id="Layer_2" data-name="Layer 2"><g id="Layer_1-2" data-name="Layer 1"><path class="cls-1" d="M12.21,68.13v23.3H0V6.13A6.13,6.13,0,0,1,6.1,0h0a6.1,6.1,0,0,1,6.1,6.13V56.57H149.89V91.43H137.58V68.13ZM31,31.73A12.07,12.07,0,1,0,18.93,19.63,12.06,12.06,0,0,0,31,31.73ZM150.08,47.4l0-15.22c0-4.84-4.1-8.17-8.81-8.75L54.31,14.78a2.46,2.46,0,0,0-.48-.13,5.45,5.45,0,0,0-5.43,5.42V36.5H25.65a5.45,5.45,0,1,0,0,10.91H150.08Z"/></g></g></svg>