<svg xmlns="http://www.w3.org/2000/svg" viewBox="0 0 37.86 94.87"><defs><style>.cls-1{fill:#394a58;}</style></defs><title>who-should-go</title><g id="Layer_2" data-name="Layer 2"><g id="Layer_1-2" data-name="Layer 1"><path class="cls-1" d="M3.61,41.59,17.69,38a4.64,4.64,0,0,0,3.08-3l3.54-12.67A2.46,2.46,0,0,0,22,19.07L20.51,19a3.56,3.56,0,0,0-3.3,2.42L14.9,29a2.82,2.82,0,0,1-1.75,1.65l-10.46,2A3.64,3.64,0,0,0,0,36s-.13,4.58.32,5S1.36,41.91,3.61,41.59Z"/><path class="cls-1" d="M13,26.91a10.5,10.5,0,0,0,1.26-.08L16,21a4.86,4.86,0,0,1,4.5-3.31l1.58.08a4,4,0,0,1,1.21.28A10.46,10.46,0,1,0,13,26.91Z"/><path class="cls-1" d="M26.22,31.34a5.11,5.11,0,0,0-2.65-1.76L22,35.27a5.9,5.9,0,0,1-4,3.9L3.92,42.8a10.29,10.29,0,0,1-1.61.14l-.35,0V90a4.84,4.84,0,0,0,4.83,4.83h.34A4.84,4.84,0,0,0,12,90V64.75H14V90a4.84,4.84,0,0,0,4.83,4.83h.34A4.84,4.84,0,0,0,24,90V61.25h.3A4.65,4.65,0,0,0,28,59.08l6.71-11.91a4.29,4.29,0,0,0-.23-4.29Zm1,15.64L24,52.24v-12l3.17,4.55A2.26,2.26,0,0,1,27.24,47Z"/><path class="cls-1" d="M26.47,6.51h2.16a.91.91,0,0,0,.9-.77A3.09,3.09,0,0,1,30.28,4a2,2,0,0,1,1.47-.5A2.11,2.11,0,0,1,33.31,4a1.89,1.89,0,0,1,.57,1.44,1.68,1.68,0,0,1-.2.8,6.18,6.18,0,0,1-1.37,1.4,7.66,7.66,0,0,0-2,2.33,7.9,7.9,0,0,0-.57,3.42h0a.91.91,0,0,0,.91.91h1.95a.91.91,0,0,0,.91-.91h0a4.8,4.8,0,0,1,.23-1.85,5.33,5.33,0,0,1,1.43-1.48,8.22,8.22,0,0,0,2.08-2.33,5.15,5.15,0,0,0,.6-2.44A4.9,4.9,0,0,0,36.1,1.47,6.47,6.47,0,0,0,31.73,0a6.21,6.21,0,0,0-4.24,1.5,5.85,5.85,0,0,0-1.93,4h0A.91.91,0,0,0,26.47,6.51Z"/><path class="cls-1" d="M32.61,19.51a.91.91,0,0,0,.91-.91V16.65a.91.91,0,0,0-.91-.91H30.66a.91.91,0,0,0-.91.91v1.94a.91.91,0,0,0,.91.91Z"/></g></g></svg>